<svg xmlns="http://www.w3.org/2000/svg" version="1.0" width="512.000000pt" height="512.000000pt" viewBox="0 0 512.000000 512.000000" preserveAspectRatio="xMidYMid meet">

<g transform="translate(0.000000,512.000000) scale(0.100000,-0.100000)" fill="#325bff" stroke="none">
<path d="M531 5109 c-157 -31 -294 -155 -342 -310 -18 -59 -19 -126 -19 -2074 0 -1948 1 -2015 19 -2074 49 -159 185 -280 350 -311 53 -10 1991 -15 1991 -5 0 2 -18 33 -41 67 -166 257 -252 616 -220 923 38 361 182 665 431 915 212 212 448 342 748 411 62 15 139 22 270 26 l182 6 0 571 c0 613 -2 639 -53 766 -49 121 -89 171 -377 469 -384 400 -445 460 -515 506 -78 52 -210 101 -308 114 -95 13 -2049 13 -2116 0z m1300 -1461 c41 -23 79 -84 79 -128 0 -44 -38 -105 -79 -128 -38 -22 -45 -22 -476 -22 -431 0 -438 0 -476 22 -41 23 -79 84 -79 128 0 42 38 105 77 128 37 21 44 22 477 22 432 0 439 0 477 -22z m960 0 c41 -23 79 -84 79 -128 0 -44 -38 -105 -79 -128 -34 -19 -54 -22 -156 -22 -140 0 -182 16 -215 85 -25 52 -25 78 0 130 33 69 73 84 214 85 103 0 123 -3 157 -22z m-960 -800 c41 -23 79 -84 79 -128 0 -44 -38 -105 -79 -128 -38 -22 -45 -22 -476 -22 -431 0 -438 0 -476 22 -41 23 -79 84 -79 128 0 42 38 105 77 128 37 21 44 22 477 22 432 0 439 0 477 -22z m960 0 c41 -23 79 -84 79 -128 0 -44 -38 -105 -79 -128 -34 -19 -54 -22 -156 -22 -140 0 -182 16 -215 85 -25 52 -25 78 0 130 33 69 73 84 214 85 103 0 123 -3 157 -22z m-960 -800 c41 -23 79 -84 79 -128 0 -44 -38 -105 -79 -128 -38 -22 -45 -22 -476 -22 -431 0 -438 0 -476 22 -41 23 -79 84 -79 128 0 42 38 105 77 128 37 21 44 22 477 22 432 0 439 0 477 -22z" fill="#325bff"/>
<path d="M3620 2369 c-598 -69 -1050 -577 -1050 -1179 0 -545 367 -1015 898 -1151 269 -69 561 -36 817 91 135 66 207 118 312 221 373 365 460 928 216 1390 -184 350 -531 583 -936 628 -108 12 -149 12 -257 0z m442 -798 c37 -14 77 -60 90 -103 9 -32 9 -48 -3 -80 -14 -41 -409 -526 -459 -564 -35 -27 -135 -27 -173 1 -32 23 -227 401 -227 441 0 37 24 86 59 118 24 23 42 30 83 33 80 6 114 -17 164 -112 l42 -77 132 158 c72 88 146 167 163 177 34 18 92 22 129 8z" fill="#325bff"/>
</g>
</svg>